<?xml version="1.0" encoding="UTF-8"?>
<svg version="1.1" xmlns="http://www.w3.org/2000/svg" width="1500" height="2100">
<path d="M0 0 C495 0 990 0 1500 0 C1500 693 1500 1386 1500 2100 C1005 2100 510 2100 0 2100 C0 1407 0 714 0 0 Z " fill="#EAEAEA" transform="translate(0,0)"/>
<path d="M0 0 C1.02441193 0.15335815 1.02441193 0.15335815 2.06951904 0.30981445 C32.53611089 5.00739234 63.28959606 16.95783606 82.625 42 C98.41135891 65.36247619 102.2761947 92.809542 97.1875 120.5625 C91.83259749 143.70066014 79.49361203 162.70139058 59.3125 175.75 C53.16438536 179.45179481 46.79999511 182.68918351 40.3125 185.75 C39.65975098 186.05953613 39.00700195 186.36907227 38.33447266 186.68798828 C15.62470196 197.10889602 -12.36097987 199.17462179 -37.125 199 C-37.88753082 198.99756287 -38.65006165 198.99512573 -39.43569946 198.99261475 C-50.64823015 198.95066914 -61.59164292 198.38955432 -72.6875 196.75 C-73.95722656 196.62882813 -75.22695313 196.50765625 -76.53515625 196.3828125 C-107.88066724 193.30787749 -138.69062544 180.24906197 -159.0625 155.6875 C-175.64074639 133.82343592 -179.68503699 107.0123669 -176.18359375 80.16796875 C-173.02573626 62.93508929 -166.03882477 48.93723923 -154.6875 35.75 C-154.16800781 35.14542969 -153.64851563 34.54085937 -153.11328125 33.91796875 C-139.10165411 18.84752847 -117.48076815 8.43370115 -97.6875 3.75 C-96.68203125 3.49089844 -95.6765625 3.23179687 -94.640625 2.96484375 C-91.00832937 2.10021835 -87.36357296 1.394836 -83.6875 0.75 C-82.92824219 0.61174805 -82.16898437 0.47349609 -81.38671875 0.33105469 C-54.81906869 -4.30259452 -26.62764687 -4.016709 0 0 Z " fill="#000000" transform="translate(558.6875,775.25)"/>
<path d="M0 0 C35.64 0 71.28 0 108 0 C113.62794191 13.50706059 113.62794191 13.50706059 115.54296875 18.93359375 C115.9714209 20.14362061 116.39987305 21.35364746 116.84130859 22.6003418 C117.29014725 23.87935657 117.73887471 25.15841037 118.1875 26.4375 C118.66989228 27.80451125 119.1524811 29.17145316 119.63525391 30.53833008 C123.17095871 40.5658891 126.62592017 50.62068271 130.07104492 60.6796875 C134.15438019 72.54907765 138.4244927 84.34976614 142.71044922 96.1472168 C142.98065887 96.89146912 143.25086853 97.63572144 143.52926636 98.40252686 C144.0342371 99.79259828 144.53997733 101.18239054 145.04666138 102.57183838 C146.42468365 106.36253974 147.74214852 110.16776057 149 114 C151.08954172 110.86568741 152.18593748 108.04615665 153.46875 104.5078125 C153.82322456 103.53393837 153.82322456 103.53393837 154.18486023 102.54039001 C154.96095545 100.40348544 155.73074001 98.26437384 156.5 96.125 C157.04070049 94.62945024 157.58147284 93.13392646 158.12231445 91.63842773 C162.81960037 78.61878509 167.34611629 65.54257952 171.82080078 52.44482422 C173.74164696 46.83340816 175.6832714 41.22921734 177.625 35.625 C178.11069458 34.22133179 178.11069458 34.22133179 178.60620117 32.78930664 C182.39143687 21.85510972 186.19872696 10.92866 190 0 C225.97 0 261.94 0 299 0 C299 63.69 299 127.38 299 193 C276.89 193 254.78 193 232 193 C231.67 145.48 231.34 97.96 231 49 C223.74 69.79 216.48 90.58 209 112 C203.95222063 126.28487222 198.90382054 140.56897638 193.83056641 154.84472656 C192.06327954 159.81928586 190.30242002 164.79610246 188.54296875 169.7734375 C187.76901133 171.96129863 186.99493293 174.14911691 186.22079468 176.33691406 C185.7471073 177.67629074 185.27380857 179.01580495 184.80093384 180.35546875 C184.17054769 182.14104031 183.53845421 183.92600884 182.90625 185.7109375 C182.55884766 186.69368652 182.21144531 187.67643555 181.85351562 188.68896484 C181 191 181 191 180 193 C159.87 193 139.74 193 119 193 C115.82881744 185.38916184 112.81747343 177.91956784 110.171875 170.140625 C109.82558548 169.13370102 109.47929596 168.12677704 109.12251282 167.08934021 C108.38064114 164.93155297 107.64038966 162.7732081 106.90164185 160.61434937 C104.91613902 154.81399988 102.91691255 149.01838475 100.91796875 143.22265625 C100.50949203 142.03771072 100.10101532 140.8527652 99.68016052 139.63191223 C95.5368152 127.62823405 91.3113169 115.65418869 87.0625 103.6875 C86.73431274 102.76287964 86.40612549 101.83825928 86.06799316 100.88562012 C83.71435164 94.25624096 81.35694193 87.62820758 79 81 C73.555 65.655 73.555 65.655 68 50 C67.67 97.19 67.34 144.38 67 193 C44.89 193 22.78 193 0 193 C0 129.31 0 65.62 0 0 Z " fill="#000000" transform="translate(991,777)"/>
<path d="M0 0 C38.0840625 -0.061875 38.0840625 -0.061875 76.9375 -0.125 C84.90640381 -0.14320801 92.87530762 -0.16141602 101.08569336 -0.18017578 C110.93859863 -0.18920898 110.93859863 -0.18920898 115.57472229 -0.19088745 C118.76115294 -0.1927247 121.94751459 -0.20011296 125.13392639 -0.21115112 C204.3391821 -0.47319374 204.3391821 -0.47319374 227.8125 21.3125 C236.70418159 30.86519389 240.22116623 41.31739545 240.3125 54.125 C240.32095947 55.25325195 240.32095947 55.25325195 240.32958984 56.40429688 C240.17783544 68.14339999 235.92575995 78.21508318 227.8125 86.75 C214.2306565 99.4900877 197.52664258 104.28701479 180 109 C181.24394531 109.40089844 182.48789062 109.80179688 183.76953125 110.21484375 C194.10148405 113.68376936 202.11489816 117.24513258 210 125 C211.05314789 125.96912369 212.10792053 126.93648386 213.1640625 127.90234375 C220.90565097 135.14142405 226.77600645 143.03940621 232.57128906 151.87011719 C235.06830345 155.59259728 237.72930742 159.19498474 240.375 162.8125 C245.08719926 169.29496557 249.70838237 175.83431822 254.25 182.4375 C254.81122559 183.24872314 255.37245117 184.05994629 255.95068359 184.89575195 C256.72532959 186.02823364 256.72532959 186.02823364 257.515625 187.18359375 C257.97227539 187.84931396 258.42892578 188.51503418 258.89941406 189.20092773 C260 191 260 191 261 194 C249.11762723 194.44208695 237.23723667 194.77871701 225.34828758 194.98443127 C219.8258985 195.08322345 214.30916917 195.21691917 208.79003906 195.43334961 C203.45320792 195.64129821 198.12177975 195.75367792 192.78120804 195.80266762 C190.75441993 195.83752341 188.72789764 195.90561033 186.70344162 196.00887108 C171.29144502 196.76302075 171.29144502 196.76302075 165.77503586 192.1322422 C161.61750883 187.56916572 158.36643709 182.52551216 155.28717422 177.19256783 C153.70520206 174.49784228 151.8979474 172.0244946 149.9921875 169.55078125 C149.4672168 168.83680176 148.94224609 168.12282227 148.40136719 167.38720703 C142.11329677 158.84017849 135.79249908 150.31902274 129.39501953 141.85351562 C128.01364223 140.01812598 126.64481512 138.17388918 125.27734375 136.328125 C117.5113074 125.91122373 111.95339272 120.29944909 99 117 C93.39 116.67 87.78 116.34 82 116 C82 141.74 82 167.48 82 194 C54.94 194 27.88 194 0 194 C0 129.98 0 65.96 0 0 Z " fill="#000000" transform="translate(703,776)"/>
<path d="M0 0 C67.32 0 134.64 0 204 0 C204 13.86 204 27.72 204 42 C164.07 42 124.14 42 83 42 C83 53.22 83 64.44 83 76 C116.99 76 150.98 76 186 76 C186 88.87 186 101.74 186 115 C151.68 115 117.36 115 82 115 C82 141.07 82 167.14 82 194 C54.94 194 27.88 194 0 194 C0 129.98 0 65.96 0 0 Z " fill="#010101" transform="translate(144,776)"/>
<path d="M0 0 C1.27681641 -0.01998047 2.55363281 -0.03996094 3.86914062 -0.06054688 C17.89157533 -0.05341078 32.93269122 3.83895836 43.52734375 13.58203125 C56.95639154 28.59096702 56.94286136 46.36127635 56.36669922 65.44628906 C55.66599221 77.14255914 51.38345896 87.25852177 43.875 96.1875 C28.06020063 109.42779715 10.27821297 111.95063975 -9.8125 110.4375 C-23.96458293 108.59427317 -36.74937146 102.62725745 -46.23828125 91.8125 C-57.14377281 76.68661696 -56.30559442 55.63683607 -54.0625 38.0625 C-51.72335153 25.70075008 -44.95729627 15.82045672 -34.8125 8.4375 C-23.58547825 1.64607209 -12.99908059 -0.07153071 0 0 Z " fill="#E9E9E9" transform="translate(518.8125,818.5625)"/>
<path d="M0 0 C7.858125 -0.1546875 7.858125 -0.1546875 15.875 -0.3125 C17.50679199 -0.35802002 19.13858398 -0.40354004 20.81982422 -0.45043945 C29.99652977 -0.53758498 37.31624131 0.23905919 44.59692383 6.33764648 C50.79069764 12.86304832 51.53609319 21.89715571 51.4375 30.4375 C51.42920166 31.36183838 51.42090332 32.28617676 51.41235352 33.23852539 C51.20180184 41.71379219 50.09112145 48.40110064 43.75 54.4375 C35.46486543 61.30759921 25.60802406 60.36028238 15.5 60.1875 C10.385 60.125625 5.27 60.06375 0 60 C0 40.2 0 20.4 0 0 Z " fill="#050505" transform="translate(267,1036)"/>
<path d="M0 0 C7.32864908 -0.06918655 14.65614683 -0.12882753 21.98486328 -0.16479492 C24.4735093 -0.17980232 26.96212923 -0.20021464 29.45068359 -0.22631836 C33.04531325 -0.26305706 36.63959064 -0.2798075 40.234375 -0.29296875 C41.33174988 -0.30845261 42.42912476 -0.32393646 43.55975342 -0.33988953 C53.96596795 -0.34211363 63.84552632 0.63149815 71.5078125 8.24609375 C74.86847825 12.19619564 75.46827887 15.83597753 75.3125 21.015625 C74.55481455 25.82692759 70.8887053 29.88425091 67.15625 32.8359375 C56.44442974 38.618768 43.04599153 39.16984396 31.15234375 39.09765625 C30.25504044 39.0962413 29.35773712 39.09482635 28.4332428 39.09336853 C25.60129286 39.0878251 22.76942555 39.07528358 19.9375 39.0625 C18.00325636 39.05747767 16.06901147 39.05291606 14.13476562 39.04882812 C9.42312058 39.0387303 4.71165146 39.01914441 0 39 C0 26.13 0 13.26 0 0 Z " fill="#E9E9E9" transform="translate(786,816)"/>
<path d="M0 0 C4.95 0 9.9 0 15 0 C16.98 7.92 18.96 15.84 21 24 C23.64 16.08 26.28 8.16 29 0 C33.95 0 38.9 0 44 0 C44.96023825 2.85353821 45.91824013 5.70779555 46.875 8.5625 C47.14441406 9.36236328 47.41382813 10.16222656 47.69140625 10.98632812 C48.08779297 12.1706543 48.08779297 12.1706543 48.4921875 13.37890625 C48.73308105 14.0963501 48.97397461 14.81379395 49.22216797 15.55297852 C50.21649023 18.68106765 51.09827761 21.84397162 52 25 C53.98 16.75 55.96 8.5 58 0 C62.95 0 67.9 0 73 0 C70.34288257 9.12307213 67.33214894 18.11736496 64.3125 27.125 C63.79608329 28.6692238 63.27980616 30.21349428 62.76367188 31.7578125 C61.51072241 35.50574826 60.25588853 39.25304811 59 43 C54.38 43 49.76 43 45 43 C42.7307952 37.93588019 40.92000482 32.87066548 39.3125 27.5625 C39.08755859 26.83095703 38.86261719 26.09941406 38.63085938 25.34570312 C38.08380134 23.56485464 37.54140628 21.78257483 37 20 C35.17678022 22.73482966 34.3982821 24.57542849 33.4921875 27.66796875 C33.09580078 29.00698242 33.09580078 29.00698242 32.69140625 30.37304688 C32.42199219 31.30181641 32.15257812 32.23058594 31.875 33.1875 C31.59785156 34.12787109 31.32070313 35.06824219 31.03515625 36.03710938 C30.35221993 38.35673791 29.67551053 40.6781981 29 43 C24.38 43 19.76 43 15 43 C11.28593448 34.10392877 8.26499936 25.02423484 5.25 15.875 C4.73856313 14.33063579 4.22684648 12.7863642 3.71484375 11.2421875 C2.47281744 7.49601105 1.23654392 3.74800725 0 0 Z " fill="#020202" transform="translate(531,1053)"/>
<path d="M0 0 C5.28 0 10.56 0 16 0 C16.33 6.6 16.66 13.2 17 20 C18.98 18.68 20.96 17.36 23 16 C27.84569258 15.14645914 32.45135936 15.35473307 37 17.25 C40.34914758 20.18050413 42.2000115 22.61352568 43 27 C43.08298675 29.54635479 43.11639258 32.06393883 43.09765625 34.609375 C43.0962413 35.33618469 43.09482635 36.06299438 43.09336853 36.81182861 C43.08778792 39.12459494 43.07523904 41.43726312 43.0625 43.75 C43.05748249 45.32161318 43.05292002 46.89322789 43.04882812 48.46484375 C43.03867733 52.30996372 43.01909832 56.15487248 43 60 C37.72 60 32.44 60 27 60 C26.93941406 57.91816406 26.87882813 55.83632812 26.81640625 53.69140625 C26.75384593 51.68252498 26.69125225 49.67364459 26.62768555 47.66479492 C26.58428566 46.26510801 26.54261436 44.86536641 26.50268555 43.46557617 C26.44510555 41.45738505 26.38086 39.44938851 26.31640625 37.44140625 C26.27974854 36.23170166 26.24309082 35.02199707 26.20532227 33.77563477 C26.31061734 31.09294544 26.31061734 31.09294544 25 30 C22.04182893 29.74994614 22.04182893 29.74994614 19 30 C16.24560484 32.75439516 16.69010724 34.46603203 16.5859375 38.3203125 C16.54726563 39.57714844 16.50859375 40.83398438 16.46875 42.12890625 C16.4378125 43.44761719 16.406875 44.76632812 16.375 46.125 C16.33681971 47.46486918 16.29776794 48.80471383 16.2578125 50.14453125 C16.16328242 53.42945148 16.08054267 56.71470706 16 60 C10.72 60 5.44 60 0 60 C0 40.2 0 20.4 0 0 Z " fill="#040404" transform="translate(669,1036)"/>
<path d="M0 0 C5.37682058 3.0866933 8.41290451 6.57599289 10.75 12.3125 C11.375 15.9375 11.375 15.9375 11.375 24.9375 C1.145 24.9375 -9.085 24.9375 -19.625 24.9375 C-17.2047509 30.56856761 -17.2047509 30.56856761 -14.625 32.9375 C-11.7092309 33.35452122 -11.7092309 33.35452122 -8.625 32.9375 C-8.06039063 32.42960937 -7.49578125 31.92171875 -6.9140625 31.3984375 C-3.60932853 29.28927282 -0.61045026 29.85103414 3.125 30.25 C4.17107422 30.3418457 4.17107422 30.3418457 5.23828125 30.43554688 C6.95189681 30.58812908 8.6636995 30.76083589 10.375 30.9375 C9.14845434 34.47884996 8.0008784 36.70900306 5.125 39.125 C4.56296875 39.61355469 4.0009375 40.10210938 3.421875 40.60546875 C-3.27747705 44.96516159 -10.93955574 44.51973063 -18.625 43.9375 C-23.96210563 42.68974664 -28.69000106 39.738822 -31.8203125 35.20703125 C-35.56378519 28.23055943 -35.61387007 20.66091626 -34.625 12.9375 C-32.41180296 6.89656053 -28.26838423 3.30100686 -22.95703125 -0.14453125 C-16.64992867 -2.62722657 -6.36348595 -2.0056123 0 0 Z " fill="#040404" transform="translate(395.625,1053.0625)"/>
<path d="M0 0 C4.25903608 3.3209224 6.84029519 6.99309038 9.25 11.8125 C9.25 15.7725 9.25 19.7325 9.25 23.8125 C-0.65 23.8125 -10.55 23.8125 -20.75 23.8125 C-19.21687233 28.12858796 -19.21687233 28.12858796 -16.75 31.8125 C-13.87586875 32.14647787 -13.87586875 32.14647787 -10.75 31.8125 C-10.18410156 31.30589844 -9.61820313 30.79929687 -9.03515625 30.27734375 C-5.7338884 28.16114641 -2.7354189 28.72603749 1 29.125 C2.04607422 29.2168457 2.04607422 29.2168457 3.11328125 29.31054688 C4.82689681 29.46312908 6.5386995 29.63583589 8.25 29.8125 C7.36603072 34.1586823 5.6986087 35.93865941 2.25 38.8125 C-5.21122509 43.52726187 -12.71040912 43.7769618 -21.26953125 42.41015625 C-27.50237379 40.7855823 -31.2403573 37.12071306 -34.75 31.8125 C-37.97804412 25.24916776 -37.31196982 17.97996624 -36.0625 10.9375 C-33.70306524 5.31979819 -30.22681819 1.48069348 -24.75 -1.1875 C-17.68631783 -3.52000395 -6.43129971 -3.88557691 0 0 Z " fill="#040404" transform="translate(1098.75,1054.1875)"/>
<path d="M0 0 C4.65586236 2.97314492 6.8898853 6.65288316 9.375 11.5625 C9.87 17.9975 9.87 17.9975 10.375 24.5625 C0.145 24.5625 -10.085 24.5625 -20.625 24.5625 C-19.09187233 28.87858796 -19.09187233 28.87858796 -16.625 32.5625 C-12.96155389 32.69818319 -10.11884279 32.72711426 -6.625 31.5625 C-6.625 30.9025 -6.625 30.2425 -6.625 29.5625 C-1.345 29.8925 3.935 30.2225 9.375 30.5625 C7.10264583 36.24338543 4.58218671 39.07250552 -0.99609375 41.6640625 C-7.96085207 44.04429194 -16.46992098 44.35477028 -23.625 42.5625 C-28.7377465 39.9078047 -33.15131671 36.17416941 -35.37890625 30.71484375 C-37.38609581 23.65458955 -37.62909576 16.3115466 -34.734375 9.484375 C-32.11427775 4.94533328 -28.71596504 1.45734952 -23.88671875 -0.609375 C-16.72694635 -2.42718548 -6.90900463 -2.9323101 0 0 Z " fill="#030303" transform="translate(807.625,1053.4375)"/>
<path d="M0 0 C0.8765625 -0.01998047 1.753125 -0.03996094 2.65625 -0.06054688 C8.28185747 -0.05631072 11.54733839 0.68274774 16 4.4375 C18.41636294 7.09549923 19 7.79044333 19 11.4375 C17.4176994 11.77570166 15.83410625 12.10785939 14.25 12.4375 C13.36828125 12.623125 12.4865625 12.80875 11.578125 13 C9 13.4375 9 13.4375 5 13.4375 C4.360625 12.7775 3.72125 12.1175 3.0625 11.4375 C1.14646589 9.16046836 1.14646589 9.16046836 -1.75 9.1875 C-2.86375 9.31125 -2.86375 9.31125 -4 9.4375 C-4.66 11.0875 -5.32 12.7375 -6 14.4375 C-5.42032471 14.53772461 -4.84064941 14.63794922 -4.2434082 14.74121094 C-1.59677682 15.2078434 1.04511352 15.69742417 3.6875 16.1875 C5.05551758 16.42339844 5.05551758 16.42339844 6.45117188 16.6640625 C12.42372588 17.79341817 16.59439453 19.11547339 20.3125 24.25 C21.70031785 28.66578405 21.41634483 32.31994283 19.8125 36.625 C16.49014452 41.7803792 12.8056651 43.8088249 7 45.4375 C-1.3336659 46.14058844 -10.49348118 46.42579404 -17.375 41.0625 C-19.62195394 38.81554606 -21.0096785 37.40846451 -22 34.4375 C-22 33.4475 -22 32.4575 -22 31.4375 C-19.41554227 31.3293134 -16.83562648 31.25012763 -14.25 31.1875 C-13.52039063 31.15398437 -12.79078125 31.12046875 -12.0390625 31.0859375 C-8.4029376 31.01982614 -6.49341368 31.01386199 -3.6796875 33.4296875 C-3.12539063 34.09226562 -2.57109375 34.75484375 -2 35.4375 C1.08461971 35.93792146 1.08461971 35.93792146 4 35.4375 C4.66 34.7775 5.32 34.1175 6 33.4375 C6 32.4475 6 31.4575 6 30.4375 C4.99839844 30.18355469 3.99679687 29.92960937 2.96484375 29.66796875 C1.62232073 29.32060265 0.27987701 28.97292995 -1.0625 28.625 C-1.71927734 28.45935547 -2.37605469 28.29371094 -3.05273438 28.12304688 C-8.59294448 26.67658808 -14.00161599 25.12844032 -18.4375 21.375 C-20.72769829 17.06942722 -20.77096235 13.21274639 -20 8.4375 C-15.60856187 0.49913108 -8.21774788 -0.06646708 0 0 Z " fill="#050505" transform="translate(965,1051.5625)"/>
<path d="M0 0 C0.8765625 -0.01998047 1.753125 -0.03996094 2.65625 -0.06054688 C8.28185747 -0.05631072 11.54733839 0.68274774 16 4.4375 C18.41636294 7.09549923 19 7.79044333 19 11.4375 C17.4176994 11.77570166 15.83410625 12.10785939 14.25 12.4375 C13.36828125 12.623125 12.4865625 12.80875 11.578125 13 C9 13.4375 9 13.4375 5 13.4375 C4.360625 12.7775 3.72125 12.1175 3.0625 11.4375 C1.14646589 9.16046836 1.14646589 9.16046836 -1.75 9.1875 C-2.86375 9.31125 -2.86375 9.31125 -4 9.4375 C-4.66 11.0875 -5.32 12.7375 -6 14.4375 C-5.42032471 14.53772461 -4.84064941 14.63794922 -4.2434082 14.74121094 C-1.59677682 15.2078434 1.04511352 15.69742417 3.6875 16.1875 C5.05551758 16.42339844 5.05551758 16.42339844 6.45117188 16.6640625 C12.42372588 17.79341817 16.59439453 19.11547339 20.3125 24.25 C21.70031785 28.66578405 21.41634483 32.31994283 19.8125 36.625 C16.49014452 41.7803792 12.8056651 43.8088249 7 45.4375 C-1.3336659 46.14058844 -10.49348118 46.42579404 -17.375 41.0625 C-19.62195394 38.81554606 -21.0096785 37.40846451 -22 34.4375 C-22 33.4475 -22 32.4575 -22 31.4375 C-19.41554227 31.3293134 -16.83562648 31.25012763 -14.25 31.1875 C-13.52039063 31.15398437 -12.79078125 31.12046875 -12.0390625 31.0859375 C-8.4029376 31.01982614 -6.49341368 31.01386199 -3.6796875 33.4296875 C-3.12539063 34.09226562 -2.57109375 34.75484375 -2 35.4375 C1.08461971 35.93792146 1.08461971 35.93792146 4 35.4375 C4.66 34.7775 5.32 34.1175 6 33.4375 C6 32.4475 6 31.4575 6 30.4375 C4.99839844 30.18355469 3.99679687 29.92960937 2.96484375 29.66796875 C1.62232073 29.32060265 0.27987701 28.97292995 -1.0625 28.625 C-1.71927734 28.45935547 -2.37605469 28.29371094 -3.05273438 28.12304688 C-14.40014297 25.16042296 -14.40014297 25.16042296 -18.4375 20.8125 C-20.42794047 16.51314858 -20.84421505 13.09791165 -20 8.4375 C-15.52322448 0.517051 -8.26210276 -0.06682583 0 0 Z " fill="#050505" transform="translate(844,1051.5625)"/>
<path d="M0 0 C0.8765625 -0.01998047 1.753125 -0.03996094 2.65625 -0.06054688 C8.28185747 -0.05631072 11.54733839 0.68274774 16 4.4375 C18.41636294 7.09549923 19 7.79044333 19 11.4375 C17.4176994 11.77570166 15.83410625 12.10785939 14.25 12.4375 C13.36828125 12.623125 12.4865625 12.80875 11.578125 13 C9 13.4375 9 13.4375 5 13.4375 C4.360625 12.7775 3.72125 12.1175 3.0625 11.4375 C1.14646589 9.16046836 1.14646589 9.16046836 -1.75 9.1875 C-2.86375 9.31125 -2.86375 9.31125 -4 9.4375 C-4.66 11.0875 -5.32 12.7375 -6 14.4375 C-5.42032471 14.53772461 -4.84064941 14.63794922 -4.2434082 14.74121094 C-1.59677682 15.2078434 1.04511352 15.69742417 3.6875 16.1875 C5.05551758 16.42339844 5.05551758 16.42339844 6.45117188 16.6640625 C11.6135707 17.64022519 15.20951013 18.54023577 19 22.4375 C21.41642748 26.28181645 21.2321197 29.86288139 20.59375 34.22265625 C19.59313 37.95523218 17.85135706 39.8894788 15 42.4375 C7.20069296 46.6157002 -1.86244684 46.46171886 -10.4375 44.75 C-14.75865486 43.15799558 -16.82136105 41.76750271 -20 38.4375 C-21.375 35.125 -21.375 35.125 -22 32.4375 C-18.69216735 31.33488912 -16.04440731 31.20009221 -12.5625 31.125 C-11.42941406 31.08761719 -10.29632813 31.05023437 -9.12890625 31.01171875 C-5.35673008 31.52503611 -4.46948031 32.66541379 -2 35.4375 C1.08461971 35.93792146 1.08461971 35.93792146 4 35.4375 C4.66 34.7775 5.32 34.1175 6 33.4375 C6 32.4475 6 31.4575 6 30.4375 C4.99839844 30.18355469 3.99679687 29.92960937 2.96484375 29.66796875 C1.62232073 29.32060265 0.27987701 28.97292995 -1.0625 28.625 C-1.71927734 28.45935547 -2.37605469 28.29371094 -3.05273438 28.12304688 C-14.40014297 25.16042296 -14.40014297 25.16042296 -18.4375 20.8125 C-20.42794047 16.51314858 -20.84421505 13.09791165 -20 8.4375 C-15.52322448 0.517051 -8.26210276 -0.06682583 0 0 Z " fill="#040404" transform="translate(481,1051.5625)"/>
<path d="M0 0 C0.83789062 -0.01611328 1.67578125 -0.03222656 2.5390625 -0.04882812 C7.65670881 -0.05285143 11.20119262 0.46522613 15.625 3.3125 C18.11022988 5.99923501 19.4668238 7.83797139 20.625 11.3125 C17.27627689 12.20549283 14.0114642 12.46061036 10.5625 12.5625 C9.30759766 12.60117188 9.30759766 12.60117188 8.02734375 12.640625 C5.12273574 12.24389805 3.8929514 11.10348018 1.625 9.3125 C-1.54232421 9.06163276 -1.54232421 9.06163276 -4.375 9.3125 C-4.045 10.9625 -3.715 12.6125 -3.375 14.3125 C-2.36179687 14.49425781 -1.34859375 14.67601562 -0.3046875 14.86328125 C1.04696353 15.11671582 2.39852119 15.37064865 3.75 15.625 C4.41515625 15.74294922 5.0803125 15.86089844 5.765625 15.98242188 C11.3109342 17.04255452 15.76871882 18.65161684 20 22.4375 C22.26932404 26.45245791 22.29899707 29.80000743 21.625 34.3125 C19.51277103 39.31514755 15.97375624 42.30337868 11.015625 44.43359375 C6.75869894 45.53705961 3.04804193 45.4480469 -1.3125 45.1875 C-2.08529297 45.16429687 -2.85808594 45.14109375 -3.65429688 45.1171875 C-9.25898028 44.81397555 -12.74118378 43.50047075 -17.375 40.3125 C-20.02147596 36.89769231 -20.375 35.72709478 -20.375 31.3125 C-17.9571288 31.20423711 -15.54412444 31.12510211 -13.125 31.0625 C-12.10212891 31.01222656 -12.10212891 31.01222656 -11.05859375 30.9609375 C-7.52501991 30.89232442 -5.80001934 30.94260262 -3.0859375 33.3046875 C-2.52132813 33.96726562 -1.95671875 34.62984375 -1.375 35.3125 C1.70961971 35.81292146 1.70961971 35.81292146 4.625 35.3125 C5.285 34.6525 5.945 33.9925 6.625 33.3125 C6.3064823 31.20429203 6.3064823 31.20429203 5.625 29.3125 C3.87123047 28.93158203 3.87123047 28.93158203 2.08203125 28.54296875 C0.53374963 28.19577833 -1.01442175 27.84809609 -2.5625 27.5 C-3.33142578 27.33435547 -4.10035156 27.16871094 -4.89257812 26.99804688 C-10.23432315 25.78297183 -14.57035069 24.49052503 -18.1875 20.125 C-19.75114689 16.42162578 -20.29891103 13.21510019 -19.375 9.3125 C-14.48041942 1.20238589 -8.93400359 -0.03404727 0 0 Z " fill="#040404" transform="translate(1181.375,1051.6875)"/>
<path d="M0 0 C1.16595703 -0.02416992 1.16595703 -0.02416992 2.35546875 -0.04882812 C7.68969346 -0.05331067 11.41668076 0.75843075 16.125 3.3125 C20.125 8.33814103 20.125 8.33814103 20.125 11.3125 C15.16426578 12.63536246 10.21388488 12.40143197 5.125 12.3125 C5.125 11.6525 5.125 10.9925 5.125 10.3125 C2.485 9.9825 -0.155 9.6525 -2.875 9.3125 C-3.205 10.9625 -3.535 12.6125 -3.875 14.3125 C-3.32561768 14.41272461 -2.77623535 14.51294922 -2.21020508 14.61621094 C0.30045761 15.08313861 2.806227 15.57257939 5.3125 16.0625 C6.17681641 16.21976563 7.04113281 16.37703125 7.93164062 16.5390625 C13.81245387 17.71071878 17.96004906 19.07147877 21.4453125 24.2890625 C23.08723926 29.17709735 21.6845549 34.07681627 19.625 38.625 C15.21527641 43.36545286 10.94292512 45.01330535 4.51953125 45.6953125 C-2.95730995 45.92029268 -9.58501518 45.68015238 -15.875 41.3125 C-18.68290963 38.50459037 -20.28935372 36.26561239 -20.875 32.3125 C-15.55165137 31.12416628 -10.30799566 30.65344298 -4.875 31.3125 C-2.625 33.375 -2.625 33.375 -0.875 35.3125 C2.81932511 35.16637105 2.81932511 35.16637105 6.125 34.3125 C6.455 32.9925 6.785 31.6725 7.125 30.3125 C5.68810534 29.87301595 4.25043262 29.43607599 2.8125 29 C1.905 28.7215625 0.9975 28.443125 0.0625 28.15625 C-1.88010762 27.59826696 -3.83996918 27.09692178 -5.8125 26.65625 C-14.05459061 24.77490323 -14.05459061 24.77490323 -17.0625 21.75 C-19.49514588 17.13636126 -19.91203902 13.42302831 -18.875 8.3125 C-17.22543826 5.02684233 -15.02378201 2.92814561 -11.75390625 1.17578125 C-7.79960964 -0.00997119 -4.10629258 -0.0168567 0 0 Z " fill="#030303" transform="translate(1133.875,1051.6875)"/>
<path d="M0 0 C1.17175781 -0.03673828 1.17175781 -0.03673828 2.3671875 -0.07421875 C8.67081426 -0.10605525 11.95327092 1.85356904 16.8125 5.875 C18.22432131 7.65835323 18.61667118 9.15169286 19 11.375 C15.65127689 12.26799283 12.3864642 12.52311036 8.9375 12.625 C7.68259766 12.66367188 7.68259766 12.66367188 6.40234375 12.703125 C3.49773574 12.30639805 2.2679514 11.16598018 0 9.375 C-3.16732421 9.12413276 -3.16732421 9.12413276 -6 9.375 C-5.67 11.025 -5.34 12.675 -5 14.375 C-3.98679687 14.55675781 -2.97359375 14.73851562 -1.9296875 14.92578125 C-0.57803647 15.17921582 0.77352119 15.43314865 2.125 15.6875 C2.79015625 15.80544922 3.4553125 15.92339844 4.140625 16.04492188 C9.66500777 17.10105388 14.10849905 18.73238075 18.375 22.4375 C20.76767253 26.76271573 20.99973545 30.54920932 20 35.375 C17.92741111 39.13457985 15.32149447 41.60992425 11.625 43.75 C8.09170495 44.59126073 4.61374383 45.09653287 1 45.375 C0.21238281 45.45234375 -0.57523437 45.5296875 -1.38671875 45.609375 C-8.1787272 45.99322477 -13.46338686 44.38930519 -19 40.375 C-20.91076646 37.50885031 -22 35.80757712 -22 32.375 C-17.12912473 31.07609993 -11.99711136 30.71950158 -7 31.375 C-4.75 33.375 -4.75 33.375 -3 35.375 C0.14522722 35.68952272 2.15916359 35.79541821 5 34.375 C5 33.055 5 31.735 5 30.375 C3.60587891 29.99408203 3.60587891 29.99408203 2.18359375 29.60546875 C-15.86256936 24.58114597 -15.86256936 24.58114597 -20 18.375 C-21.60127074 15.17245853 -21.40701607 12.92185436 -21 9.375 C-18.78471441 5.55765667 -16.40735029 2.9997971 -12.3515625 1.19921875 C-8.17128887 0.17120274 -4.28887216 0.00707735 0 0 Z " fill="#030303" transform="translate(434,1051.625)"/>
<path d="M0 0 C0.73347656 -0.01611328 1.46695313 -0.03222656 2.22265625 -0.04882812 C7.77307648 -0.05379272 11.94527049 0.97759606 16.1796875 4.84765625 C19.5 9.09027778 19.5 9.09027778 19.5 11.3125 C16.13025113 12.2110997 12.84558822 12.46102081 9.375 12.5625 C8.10269531 12.60117188 8.10269531 12.60117188 6.8046875 12.640625 C3.99565491 12.24069494 3.40542223 11.31188826 1.5 9.3125 C-2.12535976 9.0621423 -2.12535976 9.0621423 -5.5 9.3125 C-5.17 10.9625 -4.84 12.6125 -4.5 14.3125 C-3.41460938 14.48265625 -2.32921875 14.6528125 -1.2109375 14.828125 C0.23450289 15.07216039 1.67980856 15.31699462 3.125 15.5625 C3.83785156 15.67207031 4.55070313 15.78164062 5.28515625 15.89453125 C10.19222254 16.74989143 13.49550646 18.18876017 17.5 21.3125 C18.11101563 21.77914063 18.72203125 22.24578125 19.3515625 22.7265625 C21.89359486 26.23698814 20.92247512 31.20242062 20.5 35.3125 C19.17246078 39.21214646 17.2983875 40.62437395 13.8125 42.5625 C9.710304 44.41896826 5.97274179 45.10957788 1.5 45.3125 C0.76652344 45.3640625 0.03304687 45.415625 -0.72265625 45.46875 C-7.70857745 45.75633509 -12.96730811 44.36020834 -18.4375 39.9375 C-20.54879887 37.25039234 -21.21161525 35.67698872 -21.5 32.3125 C-16.17665137 31.12416628 -10.93299566 30.65344298 -5.5 31.3125 C-3.25 33.375 -3.25 33.375 -1.5 35.3125 C2.19432511 35.16637105 2.19432511 35.16637105 5.5 34.3125 C5.5 32.9925 5.5 31.6725 5.5 30.3125 C4.10587891 29.93158203 4.10587891 29.93158203 2.68359375 29.54296875 C-13.44292173 25.05310469 -13.44292173 25.05310469 -17.9375 21.25 C-20.23603064 16.92876239 -20.3810266 13.10068802 -19.5 8.3125 C-17.79355119 4.76163417 -15.50316864 2.74306353 -11.8515625 1.17578125 C-7.8144014 0.13590642 -4.14901116 -0.0182294 0 0 Z " fill="#020202" transform="translate(891.5,1051.6875)"/>
<path d="M0 0 C0 5.28 0 10.56 0 16 C2.97 16 5.94 16 9 16 C9 19.63 9 23.26 9 27 C6.03 27 3.06 27 0 27 C0.14016167 30.14618209 0.28684905 33.29181816 0.4375 36.4375 C0.47681641 37.33533203 0.51613281 38.23316406 0.55664062 39.15820312 C0.59853516 40.01220703 0.64042969 40.86621094 0.68359375 41.74609375 C0.72025146 42.53685303 0.75690918 43.3276123 0.79467773 44.14233398 C0.80563257 46.01401441 0.80563257 46.01401441 2 47 C4.33297433 47.04092937 6.66705225 47.04241723 9 47 C9 50.63 9 54.26 9 58 C3.600505 60.6997475 -1.05141623 60.65211747 -7 60 C-10.20220967 58.81444909 -12.27734383 57.13724404 -14.13623047 54.21191406 C-15.2079246 51.46755316 -15.22662653 49.30289348 -15.1953125 46.359375 C-15.18886719 45.28945312 -15.18242188 44.21953125 -15.17578125 43.1171875 C-15.15902344 42.00601562 -15.14226563 40.89484375 -15.125 39.75 C-15.11597656 38.62335938 -15.10695313 37.49671875 -15.09765625 36.3359375 C-15.07410658 33.55707635 -15.0412168 30.7786461 -15 28 C-16.98 28 -18.96 28 -21 28 C-21 24.04 -21 20.08 -21 16 C-19.02 16 -17.04 16 -15 16 C-15 13.03 -15 10.06 -15 7 C-12.87767021 5.82823482 -10.75242209 4.66245215 -8.625 3.5 C-7.72007812 2.99919922 -7.72007812 2.99919922 -6.796875 2.48828125 C-2.2265625 0 -2.2265625 0 0 0 Z " fill="#020202" transform="translate(653,1037)"/>
<path d="M0 0 C0 5.61 0 11.22 0 17 C2.64 17 5.28 17 8 17 C8 20.63 8 24.26 8 28 C5.36 28 2.72 28 0 28 C0.33 34.6 0.66 41.2 1 48 C3.31 48 5.62 48 8 48 C8.33 51.96 8.66 55.92 9 60 C2.75853731 61.56036567 -3.38674303 61.93330606 -9.5 59.75 C-12.08216324 57.94248574 -13.38726592 56.68837191 -15 54 C-15.34057617 51.15917969 -15.34057617 51.15917969 -15.29296875 47.921875 C-15.28330078 46.76171875 -15.27363281 45.6015625 -15.26367188 44.40625 C-15.2259668 42.59640625 -15.2259668 42.59640625 -15.1875 40.75 C-15.17396484 39.52796875 -15.16042969 38.3059375 -15.14648438 37.046875 C-15.1111398 34.03080502 -15.0617956 31.01562513 -15 28 C-16.98 28 -18.96 28 -21 28 C-21 24.37 -21 20.74 -21 17 C-19.02 17 -17.04 17 -15 17 C-15 14.03 -15 11.06 -15 8 C-12.6889639 6.66407203 -10.37628245 5.33115569 -8.0625 4 C-7.40314453 3.6184375 -6.74378906 3.236875 -6.06445312 2.84375 C-1.11328125 0 -1.11328125 0 0 0 Z " fill="#010101" transform="translate(1012,1036)"/>
<path d="M0 0 C4.95 0 9.9 0 15 0 C15 19.8 15 39.6 15 60 C10.05 60 5.1 60 0 60 C0 40.2 0 20.4 0 0 Z " fill="#000000" transform="translate(748,1036)"/>
<path d="M0 0 C1.98828125 0.30859375 1.98828125 0.30859375 3.98828125 1.30859375 C3.53063418 5.97659383 3.15557843 9.71899028 -0.01171875 13.30859375 C-2.34505208 13.64192708 -4.67838542 13.97526042 -7.01171875 14.30859375 C-9.82418412 17.90833774 -10.40798465 20.76296378 -10.5234375 25.265625 C-10.55888672 26.37744141 -10.59433594 27.48925781 -10.63085938 28.63476562 C-10.65341797 29.78525391 -10.67597656 30.93574219 -10.69921875 32.12109375 C-10.73337891 33.29091797 -10.76753906 34.46074219 -10.80273438 35.66601562 C-10.88503512 38.54654163 -10.95005808 41.42755203 -11.01171875 44.30859375 C-16.29171875 44.30859375 -21.57171875 44.30859375 -27.01171875 44.30859375 C-27.01171875 30.11859375 -27.01171875 15.92859375 -27.01171875 1.30859375 C-22.39171875 1.30859375 -17.77171875 1.30859375 -13.01171875 1.30859375 C-12.68171875 2.95859375 -12.35171875 4.60859375 -12.01171875 6.30859375 C-11.37234375 5.31859375 -10.73296875 4.32859375 -10.07421875 3.30859375 C-7.09709354 -0.32726319 -4.49600754 -0.2493584 0 0 Z " fill="#030303" transform="translate(1055.01171875,1051.69140625)"/>
<path d="M0 0 C0.99 0.33 1.98 0.66 3 1 C2.45809344 5.55201513 1.70744778 9.24450792 -1 13 C-3.7625331 13.83531139 -6.07493753 13.90409631 -9 14 C-11.92715281 20.59197952 -12.52285151 26.33073411 -12.6875 33.5 C-12.73874023 35.01980469 -12.73874023 35.01980469 -12.79101562 36.5703125 C-12.8727767 39.04650507 -12.9380808 41.52323183 -13 44 C-17.95 44 -22.9 44 -28 44 C-28 29.81 -28 15.62 -28 1 C-23.38 1 -18.76 1 -14 1 C-14 2.65 -14 4.3 -14 6 C-13.34 6 -12.68 6 -12 6 C-11.71125 5.195625 -11.4225 4.39125 -11.125 3.5625 C-8.99739381 -1.28371409 -4.6941942 -0.31604476 0 0 Z " fill="#010101" transform="translate(355,1052)"/>
<path d="M0 0 C5.28 0 10.56 0 16 0 C16 14.52 16 29.04 16 44 C10.72 44 5.44 44 0 44 C0 29.48 0 14.96 0 0 Z " fill="#090909" transform="translate(609,1052)"/>
<path d="M0 0 C10 0 10 0 13.0625 2.375 C16.52823344 7.07050982 16.24910687 10.62824959 16.3125 16.3125 C16.34150391 17.16779297 16.37050781 18.02308594 16.40039062 18.90429688 C16.44288075 23.12389332 16.38274023 25.38524817 14.10546875 29.04296875 C9.24284348 33.56277443 8.46859822 32 0 32 C0 21.44 0 10.88 0 0 Z " fill="#E8E8E8" transform="translate(285,1050)"/>
<path d="M0 0 C5.28 0 10.56 0 16 0 C16 5.61 16 11.22 16 17 C10.72 17 5.44 17 0 17 C0 11.39 0 5.78 0 0 Z " fill="#000000" transform="translate(1211,1079)"/>
<path d="M0 0 C4.95 0 9.9 0 15 0 C15 3.63 15 7.26 15 11 C10.05 11 5.1 11 0 11 C0 7.37 0 3.74 0 0 Z " fill="#000000" transform="translate(610,1036)"/>
<path d="M0 0 C2.57894908 1.01800621 3.76750435 1.68700609 5.375 3.9375 C5.705 5.5875 6.035 7.2375 6.375 8.9375 C1.425 8.9375 -3.525 8.9375 -8.625 8.9375 C-7.625 3.9375 -7.625 3.9375 -5.375 1.5625 C-2.625 -0.0625 -2.625 -0.0625 0 0 Z " fill="#DFDFDF" transform="translate(795.625,1061.0625)"/>
<path d="M0 0 C1.875 1.25 1.875 1.25 3 3 C3 4.65 3 6.3 3 8 C-1.62 8 -6.24 8 -11 8 C-10 2 -10 2 -8.3125 0.0625 C-5.12702876 -1.40109489 -3.32118677 -0.98928968 0 0 Z " fill="#DFDFDF" transform="translate(1089,1062)"/>
<path d="M0 0 C1.875 1.8125 1.875 1.8125 3 4 C3 5.32 3 6.64 3 8 C-1.62 8 -6.24 8 -11 8 C-10 2 -10 2 -8.3125 0.0625 C-5.10056066 -1.41325591 -3.33525198 -1.06444212 0 0 Z " fill="#E1E1E1" transform="translate(388,1062)"/>
</svg>
